<?xml version="1.0" encoding="UTF-8"?>
<svg version="1.1" xmlns="http://www.w3.org/2000/svg" width="519" height="68">
<path d="M0 0 C171.27 0 342.54 0 519 0 C519 22.44 519 44.88 519 68 C347.73 68 176.46 68 0 68 C0 45.56 0 23.12 0 0 Z " fill="#FDFDFC" transform="translate(0,0)"/>
<path d="M0 0 C5.72764599 0.10264599 5.72764599 0.10264599 8.6875 3.0625 C9.161875 4.196875 9.63625 5.33125 10.125 6.5 C10.56392578 7.41652344 10.56392578 7.41652344 11.01171875 8.3515625 C12.35784999 11.21437554 13.125 13.31188207 13.125 16.5 C13.785 16.5 14.445 16.5 15.125 16.5 C15.28935547 15.27023438 15.28935547 15.27023438 15.45703125 14.015625 C15.69486328 12.39914063 15.69486328 12.39914063 15.9375 10.75 C16.08832031 9.68265625 16.23914063 8.6153125 16.39453125 7.515625 C17.15834421 4.36234371 17.76724268 2.71969045 20.125 0.5 C22.46484375 0.0390625 22.46484375 0.0390625 25.0625 0.125 C25.91714844 0.13789063 26.77179688 0.15078125 27.65234375 0.1640625 C30.33520519 0.52855868 31.91661511 0.92800989 34.125 2.5 C35.94802765 5.98519992 36.98509631 9.74235288 38.125 13.5 C38.46917969 14.55380859 38.46917969 14.55380859 38.8203125 15.62890625 C40.26042693 20.81128986 40.35917004 26.02953977 40.4375 31.375 C40.45522461 32.12539551 40.47294922 32.87579102 40.49121094 33.64892578 C40.48397176 38.97575385 40.48397176 38.97575385 38.79296875 41.4453125 C34.41535254 44.21336022 31.7598068 43.5 26.125 43.5 C25.63 33.105 25.63 33.105 25.125 22.5 C24.465 22.17 23.805 21.84 23.125 21.5 C22.39108838 27.05675943 21.87008075 32.58578769 21.50390625 38.1796875 C21.125 40.5 21.125 40.5 19.125 42.5 C17.03125 42.765625 17.03125 42.765625 14.625 42.75 C13.8309375 42.75515625 13.036875 42.7603125 12.21875 42.765625 C10.125 42.5 10.125 42.5 8.125 40.5 C7.50051671 37.950504 6.96609651 35.45279906 6.5 32.875 C6.3659375 32.16859375 6.231875 31.4621875 6.09375 30.734375 C5.76389975 28.99088082 5.44353944 27.24559611 5.125 25.5 C4.135 25.17 3.145 24.84 2.125 24.5 C2.455 31.1 2.785 37.7 3.125 44.5 C0.82622891 45.64938555 -0.62962681 45.69841264 -3.1875 45.75 C-3.94675781 45.77578125 -4.70601563 45.8015625 -5.48828125 45.828125 C-8.71302403 45.38478884 -10.40431976 44.64240804 -12.875 42.5 C-13.43359375 39.234375 -13.43359375 39.234375 -13.3125 35.25 C-13.29292236 34.54415771 -13.27334473 33.83831543 -13.25317383 33.11108398 C-12.03883903 0.35321777 -12.03883903 0.35321777 0 0 Z " fill="#51A830" transform="translate(420.875,8.5)"/>
<path d="M0 0 C5.89006457 2.63920201 10.12483768 6.91003342 12.921875 12.71484375 C15.3468528 20.14409393 14.30136593 28.12908495 11.1171875 35.15234375 C7.93564161 40.3804981 3.53375475 43.43589569 -2.21875 45.34765625 C-9.31504678 46.25988573 -15.35216595 45.60162478 -21.21875 41.34765625 C-26.43326588 36.13314037 -28.39024031 30.69160874 -28.65625 23.47265625 C-28.44280646 16.63392522 -27.04836199 11.37441334 -22.3125 6.30859375 C-15.498587 0.13030696 -9.25228087 -2.72030089 0 0 Z " fill="#51A831" transform="translate(167.21875,7.65234375)"/>
<path d="M0 0 C2.96255243 1.69373017 5.16850149 3.06390952 6.625 6.25 C7.26683966 10.66264768 7.17659864 12.50371949 4.5 16.125 C1.39378461 18.42089833 -0.56363862 18.98409107 -4.375 19.25 C-5.035 17.27 -5.695 15.29 -6.375 13.25 C-8.79119823 12.99969023 -8.79119823 12.99969023 -11.375 13.25 C-13.85478067 16.96967101 -13.90301162 19.94209564 -13.375 24.25 C-12.45479268 27.28824575 -12.45479268 27.28824575 -10.375 29.25 C-6.72455029 29.88486082 -4.98373682 29.62118099 -1.8125 27.6875 C0.625 26.25 0.625 26.25 3.1875 26.25 C6.38163158 27.56041296 7.68671468 29.45025454 9.625 32.25 C8.70198955 36.28817073 7.07285169 37.86940251 3.6875 40 C-2.77671774 43.81811739 -8.98542837 44.11491577 -16.375 43.25 C-22.00273493 41.22191999 -26.15622853 38.4363138 -28.9375 33.0625 C-31.61998031 26.55523916 -32.75913245 20.37853298 -30.46875 13.546875 C-27.23234939 6.6176583 -23.78537386 3.11605362 -17.0625 -0.5625 C-10.96410032 -2.52639142 -5.8838441 -2.73139919 0 0 Z " fill="#51A831" transform="translate(127.375,9.75)"/>
<path d="M0 0 C1.19786133 -0.03673828 1.19786133 -0.03673828 2.41992188 -0.07421875 C6.40578517 -0.09403249 8.58970956 0.10223628 12.109375 2.1328125 C14.0625 4.375 14.0625 4.375 14.55078125 6.515625 C14.38802083 8.46875 14.22526042 10.421875 14.0625 12.375 C9.4425 12.705 4.8225 13.035 0.0625 13.375 C0.0625 14.365 0.0625 15.355 0.0625 16.375 C0.77277344 16.36339844 1.48304688 16.35179687 2.21484375 16.33984375 C3.13394531 16.33082031 4.05304688 16.32179688 5 16.3125 C5.91652344 16.30089844 6.83304687 16.28929687 7.77734375 16.27734375 C10.0625 16.375 10.0625 16.375 11.0625 17.375 C11.19818319 21.03844611 11.22711426 23.88115721 10.0625 27.375 C5.1125 27.87 5.1125 27.87 0.0625 28.375 C-0.2675 29.365 -0.5975 30.355 -0.9375 31.375 C5.09150687 30.86258893 11.08254643 30.305215 17.0625 29.375 C18.67343138 32.59686276 18.65019458 35.89031684 18.0625 39.375 C14.4184455 43.84190552 9.55243699 44.74213226 4.0625 45.375 C1.42487854 45.57768608 -1.17231246 45.73266712 -3.8125 45.8125 C-5.08867187 45.85246094 -6.36484375 45.89242187 -7.6796875 45.93359375 C-10.9375 45.375 -10.9375 45.375 -12.8203125 43.09765625 C-15.3239814 36.99605758 -15.12105429 31.27620693 -15.125 24.75 C-15.13724609 23.70714844 -15.14949219 22.66429687 -15.16210938 21.58984375 C-15.18809992 7.71089484 -15.18809992 7.71089484 -12.9375 2.375 C-8.93562375 -0.37891001 -4.68030815 0.00751857 0 0 Z " fill="#50A830" transform="translate(386.9375,7.625)"/>
<path d="M0 0 C1.19786133 -0.03673828 1.19786133 -0.03673828 2.41992188 -0.07421875 C6.40578517 -0.09403249 8.58970956 0.10223628 12.109375 2.1328125 C14.0625 4.375 14.0625 4.375 14.55078125 6.515625 C14.38802083 8.46875 14.22526042 10.421875 14.0625 12.375 C9.4425 12.705 4.8225 13.035 0.0625 13.375 C0.0625 14.365 0.0625 15.355 0.0625 16.375 C0.77277344 16.36339844 1.48304687 16.35179687 2.21484375 16.33984375 C3.13394531 16.33082031 4.05304688 16.32179688 5 16.3125 C5.91652344 16.30089844 6.83304688 16.28929687 7.77734375 16.27734375 C10.0625 16.375 10.0625 16.375 11.0625 17.375 C11.19818319 21.03844611 11.22711426 23.88115721 10.0625 27.375 C5.1125 27.87 5.1125 27.87 0.0625 28.375 C-0.2675 29.365 -0.5975 30.355 -0.9375 31.375 C5.09150687 30.86258893 11.08254643 30.305215 17.0625 29.375 C18.67343138 32.59686276 18.65019458 35.89031684 18.0625 39.375 C14.4184455 43.84190552 9.55243699 44.74213226 4.0625 45.375 C1.42487854 45.57768608 -1.17231246 45.73266712 -3.8125 45.8125 C-5.08867188 45.85246094 -6.36484375 45.89242187 -7.6796875 45.93359375 C-10.9375 45.375 -10.9375 45.375 -12.8203125 43.09765625 C-17.27123888 32.25046854 -16.89964461 13.38303385 -12.9375 2.375 C-8.76215273 -0.24077743 -4.78133525 0.00768086 0 0 Z " fill="#50A830" transform="translate(75.9375,7.625)"/>
<path d="M0 0 C2.93229448 1.66807171 5.18928738 3.09143224 6.625 6.25 C6.625 9.83895805 5.85479065 11.0074432 3.375 13.625 C0.625 15.25 0.625 15.25 -2.0625 15.1875 C-4.375 14.25 -4.375 14.25 -6.375 11.25 C-7.365 10.92 -8.355 10.59 -9.375 10.25 C-7.90951507 14.07837356 -6.0603456 15.28054932 -2.5 17.1875 C2.15910138 19.84312056 5.19378094 22.38756189 7.625 27.25 C8.01339898 31.28934936 7.86414161 33.74182407 6.125 37.4375 C2.49226385 41.52432817 -1.19179117 43.70557685 -6.61328125 44.6328125 C-13.07817506 44.96778109 -18.10101507 43.01850032 -23.01953125 38.859375 C-25.45560755 36.30921248 -26.35864223 34.65894432 -26.5 31.125 C-25.09851093 27.54341682 -23.68573106 26.17484364 -20.375 24.25 C-18.3125 24.1875 -18.3125 24.1875 -16.375 25.25 C-15.03672696 26.91270287 -13.70310215 28.57916181 -12.375 30.25 C-11.385 30.25 -10.395 30.25 -9.375 30.25 C-9.375 29.26 -9.375 28.27 -9.375 27.25 C-11.4737398 25.72398122 -11.4737398 25.72398122 -14.125 24.375 C-21.36348315 20.18160112 -21.36348315 20.18160112 -23.375 16.25 C-24.03413287 12.00828615 -23.83132886 8.45792935 -22.3125 4.4375 C-16.15319628 -2.51655259 -8.32365993 -3.84873817 0 0 Z " fill="#52A932" transform="translate(323.375,8.75)"/>
<path d="M0 0 C2.93229448 1.66807171 5.18928738 3.09143224 6.625 6.25 C6.625 9.83895805 5.85479065 11.0074432 3.375 13.625 C0.625 15.25 0.625 15.25 -2.0625 15.1875 C-4.375 14.25 -4.375 14.25 -6.375 11.25 C-7.365 10.92 -8.355 10.59 -9.375 10.25 C-7.90951507 14.07837356 -6.0603456 15.28054932 -2.5 17.1875 C2.15910138 19.84312056 5.19378094 22.38756189 7.625 27.25 C8.01339898 31.28934936 7.86414161 33.74182407 6.125 37.4375 C2.49226385 41.52432817 -1.19179117 43.70557685 -6.61328125 44.6328125 C-13.07817506 44.96778109 -18.10101507 43.01850032 -23.01953125 38.859375 C-25.45560755 36.30921248 -26.35864223 34.65894432 -26.5 31.125 C-25.09851093 27.54341682 -23.68573106 26.17484364 -20.375 24.25 C-18.3125 24.1875 -18.3125 24.1875 -16.375 25.25 C-15.03672696 26.91270287 -13.70310215 28.57916181 -12.375 30.25 C-11.385 30.25 -10.395 30.25 -9.375 30.25 C-9.375 29.26 -9.375 28.27 -9.375 27.25 C-11.4737398 25.72398122 -11.4737398 25.72398122 -14.125 24.375 C-21.36348315 20.18160112 -21.36348315 20.18160112 -23.375 16.25 C-24.03413287 12.00828615 -23.83132886 8.45792935 -22.3125 4.4375 C-16.15319628 -2.51655259 -8.32365993 -3.84873817 0 0 Z " fill="#52A932" transform="translate(248.375,8.75)"/>
<path d="M0 0 C2.24850238 2.24850238 1.78889954 7.914389 2.07421875 11.09765625 C2.54405637 15.46953507 2.77425325 16.77425325 6 20 C6.33 14.06 6.66 8.12 7 2 C10.94698749 0.02650626 12.45192088 -0.24970477 16.6875 -0.1875 C17.66074219 -0.18105469 18.63398438 -0.17460938 19.63671875 -0.16796875 C22 0 22 0 23 1 C24.26002169 14.10422557 17.67410866 27.61432292 9.86328125 37.78125 C6.37843067 41.62492464 3.47510078 44.41850435 -1.75 45.3125 C-5.17188082 45.38441343 -6.02180758 44.98620337 -9.0625 43.0625 C-9.701875 42.381875 -10.34125 41.70125 -11 41 C-10.3605547 37.29121726 -10.3605547 37.29121726 -8.375 35.6875 C-6.64437556 33.95256855 -6.64437556 33.95256855 -7.19140625 30.8359375 C-8.19131105 26.09242778 -10.21754026 22.33000176 -12.56054688 18.16210938 C-14.64548461 14.27281559 -15.62276299 11.40966523 -15 7 C-10.43655695 2.43655695 -6.55343496 -0.53135959 0 0 Z " fill="#51A831" transform="translate(274,8)"/>
<path d="M0 0 C2.66531967 3.99797951 2.7116934 7.29930903 2 12 C-0.42656595 14.7860572 -3.55792832 15.75702967 -7 17 C-7.23616314 23.166482 -6.85561374 28.68205024 -5.33984375 34.67578125 C-4.93205308 37.46469444 -5.07522059 39.33288258 -6 42 C-9.00302669 44.26941058 -11.94518868 44.29762206 -15.625 44.3125 C-16.58664062 44.32925781 -17.54828125 44.34601562 -18.5390625 44.36328125 C-19.35117187 44.24339844 -20.16328125 44.12351563 -21 44 C-23.28538107 40.5719284 -23.14482343 40.01789987 -22.625 36.125 C-21.89791603 29.73521503 -21.90808744 23.42366685 -22 17 C-22.78246094 17.01160156 -23.56492187 17.02320312 -24.37109375 17.03515625 C-25.38300781 17.04417969 -26.39492188 17.05320312 -27.4375 17.0625 C-28.44683594 17.07410156 -29.45617187 17.08570312 -30.49609375 17.09765625 C-33 17 -33 17 -34 16 C-34.23828125 14.14453125 -34.23828125 14.14453125 -34.3125 11.8125 C-34.34988281 11.05582031 -34.38726562 10.29914062 -34.42578125 9.51953125 C-33.76528145 5.61106911 -32.8048954 3.85353521 -30 1 C-26.15248078 0.12533603 -22.36995401 0.16094568 -18.4375 0.1875 C-16.35282602 0.16327443 -14.26818395 0.1360658 -12.18359375 0.10546875 C-10.79998657 0.10776489 -10.79998657 0.10776489 -9.38842773 0.11010742 C-0.74493252 -0.28836098 -0.74493252 -0.28836098 0 0 Z " fill="#52A932" transform="translate(367,8)"/>
<path d="M0 0 C9.43023244 1.64414874 18.46950528 4.38464468 27.625 7.125 C29.21732753 7.59806167 30.80977459 8.07072117 32.40234375 8.54296875 C36.26962278 9.69068101 40.13524391 10.84382194 44 12 C45.11690763 16.68008848 44.56125861 19.60931719 43.1875 24.25 C42.83042969 25.49265625 42.47335938 26.7353125 42.10546875 28.015625 C41 31 41 31 39 32 C37.1784668 31.67141724 37.1784668 31.67141724 34.94921875 31.02783203 C34.11495361 30.79073517 33.28068848 30.55363831 32.42114258 30.30935669 C31.51904053 30.04484711 30.61693848 29.78033752 29.6875 29.5078125 C28.76283936 29.24241669 27.83817871 28.97702087 26.88549805 28.70358276 C24.9275752 28.14023181 22.97064823 27.57341004 21.01464844 27.00341797 C18.01439966 26.12919582 15.01145653 25.26482008 12.0078125 24.40234375 C10.10920977 23.85473921 8.21076674 23.30658062 6.3125 22.7578125 C5.41039795 22.49735138 4.5082959 22.23689026 3.57885742 21.96853638 C2.32745972 21.6034346 2.32745972 21.6034346 1.05078125 21.23095703 C-0.05269653 20.90999557 -0.05269653 20.90999557 -1.1784668 20.58255005 C-3 20 -3 20 -5 19 C-3.43247063 12.63583076 -1.85735533 6.28643343 0 0 Z " fill="#4DA833" transform="translate(15,9)"/>
<path d="M0 0 C1.17112946 2.62309099 2.33705964 5.24828142 3.5 7.875 C3.83386719 8.62136719 4.16773438 9.36773437 4.51171875 10.13671875 C4.82753906 10.85214844 5.14335938 11.56757813 5.46875 12.3046875 C5.76201172 12.96452637 6.05527344 13.62436523 6.35742188 14.30419922 C7 16 7 16 7 18 C1.38055268 20.4302779 -4.24284406 22.85108144 -9.87011719 25.26318359 C-11.78399455 26.08513194 -13.6967656 26.9096613 -15.60839844 27.73681641 C-18.35585563 28.92509877 -21.10715374 30.10405159 -23.859375 31.28125 C-24.71368103 31.65310425 -25.56798706 32.0249585 -26.44818115 32.40808105 C-27.24870911 32.74843384 -28.04923706 33.08878662 -28.87402344 33.43945312 C-29.57573669 33.7414563 -30.27744995 34.04345947 -31.00042725 34.35461426 C-33 35 -33 35 -37 35 C-38.0376342 32.77735746 -39.05496179 30.54874335 -40.0625 28.3125 C-40.50432617 27.37374023 -40.50432617 27.37374023 -40.95507812 26.41601562 C-42.13508077 23.76448026 -42.98346567 21.44068343 -43.09277344 18.52734375 C-41.31003387 14.40426064 -37.74354299 13.61091226 -33.73046875 12.01171875 C-32.89792068 11.66365677 -32.06537262 11.31559479 -31.20759583 10.95698547 C-29.44514699 10.22447158 -27.67878082 9.50132323 -25.90893555 8.78686523 C-23.20056767 7.69277888 -20.50514009 6.57088769 -17.81054688 5.44335938 C-16.09704058 4.73531572 -14.38286829 4.02888122 -12.66796875 3.32421875 C-11.86054733 2.98992355 -11.05312592 2.65562836 -10.22123718 2.311203 C-9.46397842 2.00700943 -8.70671967 1.70281586 -7.92651367 1.3894043 C-6.93176277 0.98566841 -6.93176277 0.98566841 -5.91691589 0.57377625 C-4 0 -4 0 0 0 Z " fill="#4DA833" transform="translate(508,10)"/>
<path d="M0 0 C2.83831071 3.12777016 3.11301408 5.80267947 2.94140625 9.83203125 C2.2865625 9.88738037 1.63171875 9.94272949 0.95703125 9.99975586 C-2.04831841 10.25471181 -5.05345477 10.5121044 -8.05859375 10.76953125 C-9.08855469 10.85654297 -10.11851562 10.94355469 -11.1796875 11.03320312 C-12.69755859 11.1637207 -12.69755859 11.1637207 -14.24609375 11.296875 C-15.23794678 11.38155029 -16.2297998 11.46622559 -17.25170898 11.5534668 C-19.74071349 11.80048377 -22.18623048 12.14804897 -24.65625 12.53515625 C-25.77902344 12.633125 -26.90179688 12.73109375 -28.05859375 12.83203125 C-30.54391668 10.60161323 -31.66212854 8.73068572 -32.99609375 5.70703125 C-33.05859375 3.83203125 -33.05859375 3.83203125 -31.921875 2.2890625 C-25.88883322 -2.4285991 -6.61878541 -3.75525017 0 0 Z " fill="#51A831" transform="translate(216.05859375,25.16796875)"/>
<path d="M0 0 C0.99 0.33 1.98 0.66 3 1 C1.35 5.95 -0.3 10.9 -2 16 C0.0625 16.495 2.125 16.99 4.25 17.5 C16.93416587 20.61374191 29.4569477 24.36716824 42 28 C41.34 28.99 40.68 29.98 40 31 C34.69589567 31.9865634 29.99049864 30.76746827 25 29 C23.741875 28.896875 22.48375 28.79375 21.1875 28.6875 C16.37375326 28.23492552 11.87624867 26.9704866 7.25 25.625 C6.51676514 25.41576904 5.78353027 25.20653809 5.02807617 24.9909668 C1.0141756 23.79023515 -2.61726754 22.56327208 -6 20 C-6.9399692 14.24268866 -5.26020815 8.32032536 -3 3 C-1.39453125 1.203125 -1.39453125 1.203125 0 0 Z " fill="#E2E2E2" transform="translate(12,12)"/>
<path d="M0 0 C1.59941841 3.16146723 3.13029199 6.35018893 4.625 9.5625 C5.07101562 10.51253906 5.51703125 11.46257813 5.9765625 12.44140625 C7 15 7 15 7 18 C20.51831806 13.10954964 33.75780951 7.58945165 47 2 C45.55063 5.52249078 45.17065515 5.91912347 41.48046875 7.66796875 C40.05476743 8.18917863 38.62344469 8.69521264 37.1875 9.1875 C36.47529297 9.44724609 35.76308594 9.70699219 35.02929688 9.97460938 C31.3827954 11.28006365 27.83524422 12.37460654 24 13 C23.67 13.99 23.34 14.98 23 16 C20.77930034 17.40007025 18.65276076 18.59060476 16.3125 19.75 C15.69955078 20.07871094 15.08660156 20.40742187 14.45507812 20.74609375 C11.34750338 22.30811966 9.14970549 23.00384757 5.65625 22.9140625 C3 22 3 22 1.1875 18.625 C0.795625 17.42875 0.40375 16.2325 0 15 C-0.33 14.01 -0.66 13.02 -1 12 C-1.33 14.31 -1.66 16.62 -2 19 C-2.33 19 -2.66 19 -3 19 C-3.33 13.72 -3.66 8.44 -4 3 C-3.01 2.67 -2.02 2.34 -1 2 C-0.67 1.34 -0.34 0.68 0 0 Z " fill="#E3E3E3" transform="translate(464,27)"/>
<path d="M0 0 C1.9375 0.25 1.9375 0.25 4 1 C6.29293284 4.43939927 6.27019638 5.82562681 6.25 9.875 C6.25515625 10.90367188 6.2603125 11.93234375 6.265625 12.9921875 C5.99284093 16.08106599 5.44947124 18.26375328 4 21 C1.375 21.8125 1.375 21.8125 -1 22 C-3.68056188 16.63887624 -4.57197455 13.00573274 -4 7 C-1.84375 1.84375 -1.84375 1.84375 0 0 Z " fill="#F7FBF5" transform="translate(159,19)"/>
<path d="M0 0 C1.3542168 3.65638537 0.51496224 5.51327392 -1 9 C-0.16984375 9.1959375 0.6603125 9.391875 1.515625 9.59375 C15.45939243 12.97759314 29.22059556 17.0090848 43 21 C42.67 21.66 42.34 22.32 42 23 C34.72607261 22.24752475 34.72607261 22.24752475 31.25 21.0625 C28.31479924 20.10291514 25.73053247 19.6263591 22.6875 19.1875 C17.267116 18.33416499 12.07511806 17.02325858 6.8125 15.5 C6.05735107 15.28625732 5.30220215 15.07251465 4.52416992 14.85229492 C2.66264816 14.29851194 0.82790505 13.65627891 -1 13 C-2.39457694 10.21084611 -2.1821922 8.09726736 -2 5 C-1 2.125 -1 2.125 0 0 Z " fill="#A5A7A6" transform="translate(11,19)"/>
<path d="M0 0 C2.52861573 2.26053899 3.83856528 4.39900064 5.1875 7.5 C5.53167969 8.2734375 5.87585938 9.046875 6.23046875 9.84375 C7 12 7 12 7 15 C8.15628906 14.54947266 8.15628906 14.54947266 9.3359375 14.08984375 C10.33882813 13.70957031 11.34171875 13.32929687 12.375 12.9375 C13.37273437 12.55464844 14.37046875 12.17179687 15.3984375 11.77734375 C18 11 18 11 20 12 C10.77448747 17.74031891 10.77448747 17.74031891 5 17 C4.34 13.7 3.68 10.4 3 7 C2.34 7 1.68 7 1 7 C0.67 4.69 0.34 2.38 0 0 Z " fill="#ABB0AD" transform="translate(464,30)"/>
<path d="M0 0 C1.1577506 3.47325181 1.06866652 6.36067448 1 10 C1.66 10 2.32 10 3 10 C5.09230769 14.43076923 5.09230769 14.43076923 4.625 17.3125 C4.315625 18.1478125 4.315625 18.1478125 4 19 C3.67 17.35 3.34 15.7 3 14 C2.34 14 1.68 14 1 14 C1 13.34 1 12.68 1 12 C0.34 12 -0.32 12 -1 12 C-1.33 14.31 -1.66 16.62 -2 19 C-2.33 19 -2.66 19 -3 19 C-3.33 13.72 -3.66 8.44 -4 3 C-3.01 2.67 -2.02 2.34 -1 2 C-0.67 1.34 -0.34 0.68 0 0 Z " fill="#BFC8BC" transform="translate(464,27)"/>
<path d="M0 0 C2.52121432 0.62349358 5.04196931 1.24875361 7.5625 1.875 C8.26697266 2.04902344 8.97144531 2.22304688 9.69726562 2.40234375 C14.16024998 3.51294815 18.58487052 4.71201216 23 6 C22.67 6.66 22.34 7.32 22 8 C14.36945905 7.38955672 7.29810526 5.20378179 0 3 C0 2.01 0 1.02 0 0 Z " fill="#A3A6A4" transform="translate(31,34)"/>
<path d="M0 0 C0 0.99 0 1.98 0 3 C-2.89072411 4.2119187 -5.78327524 5.41890819 -8.6796875 6.6171875 C-10.75422716 7.48117225 -12.8230716 8.35911796 -14.8828125 9.2578125 C-15.74648438 9.62648438 -16.61015625 9.99515625 -17.5 10.375 C-18.66015625 10.88160156 -18.66015625 10.88160156 -19.84375 11.3984375 C-22 12 -22 12 -26 11 C-17.42 7.37 -8.84 3.74 0 0 Z " fill="#C0C3C1" transform="translate(510,29)"/>
<path d="M0 0 C6.93280841 0.36957986 12.61592482 1.24824346 19 4 C20.485 4.5878125 20.485 4.5878125 22 5.1875 C22.66 5.455625 23.32 5.72375 24 6 C20.6252898 7.14184472 18.60566936 6.84408845 15.234375 5.78515625 C14.34492188 5.51123047 13.45546875 5.23730469 12.5390625 4.95507812 C11.61867188 4.66052734 10.69828125 4.36597656 9.75 4.0625 C8.81414063 3.77181641 7.87828125 3.48113281 6.9140625 3.18164062 C4.6063855 2.46343503 2.30206318 1.73596262 0 1 C0 0.67 0 0.34 0 0 Z " fill="#B9B9B9" transform="translate(10,31)"/>
<path d="M0 0 C2.9375 0.75 2.9375 0.75 6 2 C6.875 4.125 6.875 4.125 7 6 C5.25 6.75 5.25 6.75 3 7 C0.75 5.0625 0.75 5.0625 -1 3 C-0.67 2.01 -0.34 1.02 0 0 Z " fill="#F2F8F0" transform="translate(308,33)"/>
<path d="M0 0 C2.9375 0.75 2.9375 0.75 6 2 C6.875 4.125 6.875 4.125 7 6 C5.25 6.75 5.25 6.75 3 7 C0.75 5.0625 0.75 5.0625 -1 3 C-0.67 2.01 -0.34 1.02 0 0 Z " fill="#F2F8F0" transform="translate(233,33)"/>
<path d="M0 0 C6.19240462 0.68804496 12.01955594 2.28048715 18 4 C18 4.33 18 4.66 18 5 C12.5610835 5.21755666 8.12919186 5.10428384 3 3 C3 2.34 3 1.68 3 1 C2.01 0.67 1.02 0.34 0 0 Z " fill="#C7C7C7" transform="translate(34,38)"/>
<path d="M0 0 C0.99 0.33 1.98 0.66 3 1 C2.34 2.98 1.68 4.96 1 7 C0.34 7 -0.32 7 -1 7 C-1.33 8.65 -1.66 10.3 -2 12 C-3.60170888 7.9957278 -2.34040384 4.94674464 -1 1 C-0.67 0.67 -0.34 0.34 0 0 Z " fill="#CACCCB" transform="translate(12,12)"/>
<path d="M0 0 C0.33 0 0.66 0 1 0 C0.67 5.94 0.34 11.88 0 18 C-0.99 17.67 -1.98 17.34 -3 17 C-2.25339288 11.27601207 -1.17122859 5.65146223 0 0 Z " fill="#DBECD7" transform="translate(61,16)"/>
<path d="M0 0 C0.66 0 1.32 0 2 0 C1.67 1.32 1.34 2.64 1 4 C-0.45792884 4.05399736 -1.91642712 4.09279177 -3.375 4.125 C-4.18710937 4.14820313 -4.99921875 4.17140625 -5.8359375 4.1953125 C-8 4 -8 4 -10 2 C-9.04287109 1.90912109 -9.04287109 1.90912109 -8.06640625 1.81640625 C-6.82697266 1.69072266 -6.82697266 1.69072266 -5.5625 1.5625 C-4.73878906 1.48128906 -3.91507813 1.40007813 -3.06640625 1.31640625 C-1.01337975 1.21069185 -1.01337975 1.21069185 0 0 Z " fill="#E5E5E5" transform="translate(53,41)"/>
<path d="M0 0 C2.79828356 0.38597015 3.8205884 0.80136573 5.75 2.9375 C7 5 7 5 7 7 C4.08482708 5.92598892 2.22189824 5.22189824 0 3 C0 2.01 0 1.02 0 0 Z " fill="#E9F4E5" transform="translate(314,19)"/>
<path d="M0 0 C2.79828356 0.38597015 3.8205884 0.80136573 5.75 2.9375 C7 5 7 5 7 7 C4.08482708 5.92598892 2.22189824 5.22189824 0 3 C0 2.01 0 1.02 0 0 Z " fill="#E9F4E5" transform="translate(239,19)"/>
</svg>
