<?xml version="1.0" encoding="UTF-8"?>
<svg version="1.1" xmlns="http://www.w3.org/2000/svg" width="359" height="140">
<path d="M0 0 C118.47 0 236.94 0 359 0 C359 46.2 359 92.4 359 140 C240.53 140 122.06 140 0 140 C0 93.8 0 47.6 0 0 Z " fill="#FCFDFA" transform="translate(0,0)"/>
<path d="M0 0 C118.47 0 236.94 0 359 0 C359 10.56 359 21.12 359 32 C240.53 32 122.06 32 0 32 C0 21.44 0 10.88 0 0 Z " fill="#F7F7F7" transform="translate(0,108)"/>
<path d="M0 0 C0 1.98 0 3.96 0 6 C-1.65 6.33 -3.3 6.66 -5 7 C-3.95199219 7.07347656 -3.95199219 7.07347656 -2.8828125 7.1484375 C-1.51769531 7.26058594 -1.51769531 7.26058594 -0.125 7.375 C0.77992188 7.44460937 1.68484375 7.51421875 2.6171875 7.5859375 C5 8 5 8 7 10 C6.27554688 9.96519531 5.55109375 9.93039062 4.8046875 9.89453125 C-0.93998168 9.73368051 -5.01322966 9.76533816 -10 13 C-9.2575 13.7425 -8.515 14.485 -7.75 15.25 C-5 18 -5 18 -3 20.375 C-1.13789538 22.27512166 -1.13789538 22.27512166 1.23046875 21.79296875 C4.49603073 20.8579771 7.29553936 19.49571044 10.3125 17.9375 C11.38113281 17.38964844 12.44976562 16.84179688 13.55078125 16.27734375 C14.35902344 15.85582031 15.16726563 15.43429687 16 15 C14.42307996 18.40205897 12.38760188 20.86745192 9.91015625 23.6796875 C6.08866034 28.32175002 2.7105054 33.30665283 -0.74658203 38.22265625 C-2.81699576 41.15849808 -4.90946249 44.07846451 -7 47 C-2.38 47 2.24 47 7 47 C6.67 46.34 6.34 45.68 6 45 C2.535 45.495 2.535 45.495 -1 46 C-1 45.34 -1 44.68 -1 44 C2.63 43.34 6.26 42.68 10 42 C10 41.34 10 40.68 10 40 C10.99 40 11.98 40 13 40 C13 40.99 13 41.98 13 43 C14.65 41.68 16.3 40.36 18 39 C16.20840762 43.56041697 13.06260069 46.01079355 8.703125 48.1015625 C2.17166039 50.27242501 -5.73299704 49.78533465 -12 47 C-12 46.34 -12 45.68 -12 45 C-11.01 45 -10.02 45 -9 45 C-10.051875 44.0409375 -10.051875 44.0409375 -11.125 43.0625 C-14.21574231 40.0244408 -16.34035224 36.48747048 -18.5703125 32.79296875 C-19.04210937 32.20128906 -19.51390625 31.60960938 -20 31 C-20.99 31 -21.98 31 -23 31 C-23.60631822 23.4816541 -22.38103666 18.22846176 -18 12 C-13.89348077 7.83445483 -9.98052564 5.29902628 -4 5 C-4.33 4.34 -4.66 3.68 -5 3 C-5.99 3 -6.98 3 -8 3 C-8 2.34 -8 1.68 -8 1 C-2.25 0 -2.25 0 0 0 Z " fill="#E3E4E2" transform="translate(246,0)"/>
<path d="M0 0 C14 0 14 0 20 3 C22.42335174 5.97411351 22.35586421 9.27417293 22.2578125 13.03515625 C21.87949755 15.91837475 20.79180855 17.74364849 19 20 C16 22 16 22 13 22 C13.61488281 22.88042969 14.22976563 23.76085937 14.86328125 24.66796875 C15.67977171 25.84108723 16.49617325 27.0142676 17.3125 28.1875 C17.91868164 29.0547168 17.91868164 29.0547168 18.53710938 29.93945312 C20.82077693 33.22570643 22.98557854 36.53832428 25 40 C22.3203125 40.390625 22.3203125 40.390625 19 40 C16.97325141 37.9191246 15.48136905 36.11648059 13.875 33.75 C13.04174329 32.57621732 12.20585253 31.40429957 11.3671875 30.234375 C11.00737793 29.71069336 10.64756836 29.18701172 10.27685547 28.64746094 C8.69858927 26.61110524 6.82176683 24.82176683 5 23 C5 28.61 5 34.22 5 40 C3.35 40 1.7 40 0 40 C0 26.8 0 13.6 0 0 Z " fill="#A9DA18" transform="translate(275,9)"/>
<path d="M0 0 C15 0 15 0 18.875 2.375 C21.8628422 6.06586389 22.28344905 8.17958208 22.22265625 12.96484375 C21.90143435 15.90092462 20.81916075 17.70920498 19 20 C16 22 16 22 13 22 C15.883808 26.37030696 18.76996648 30.72034846 21.875 34.9375 C24 38 24 38 24 40 C21.71875 40.25390625 21.71875 40.25390625 19 40 C17.15625 38.27734375 17.15625 38.27734375 15.5 35.9375 C14.90832031 35.12152344 14.31664063 34.30554687 13.70703125 33.46484375 C13.14371094 32.65144531 12.58039063 31.83804688 12 31 C9.10654058 26.34320498 9.10654058 26.34320498 5 23 C5 28.61 5 34.22 5 40 C3.35 40 1.7 40 0 40 C0 26.8 0 13.6 0 0 Z " fill="#AADB1D" transform="translate(90,9)"/>
<path d="M0 0 C4.22215518 1.52716251 6.20497853 4.044785 8.26953125 8.0390625 C9.60924867 11.63552317 9.48766893 14.15960719 9 18 C6.30455136 23.10209922 3.4785689 26.17381037 -2 28 C-6.73039335 28.38773716 -9.05546399 28.48117872 -13.3125 26.3125 C-16.90897445 23.21785919 -18.65357682 21.25699953 -19.38671875 16.48046875 C-19.70368645 11.33150459 -19.53022174 7.90465115 -16.125 3.875 C-11.35659049 -0.9394811 -6.5127916 -0.50025791 0 0 Z " fill="#FDFEFA" transform="translate(283,69)"/>
<path d="M0 0 C4.43041256 2.13609177 7.16159481 4.40398702 9 9 C9.715328 13.76885333 9.48847963 17.05793214 7.25 21.375 C3.46952757 25.78555117 0.56604986 27.75791982 -5.3125 28.3125 C-10.49723861 27.87311537 -13.41601755 25.80246279 -16.8125 21.9375 C-19.30470992 17.87126276 -19.6426686 13.64834275 -19 9 C-14.44356379 0.37531717 -9.33096617 -1.21708254 0 0 Z " fill="#FDFEFC" transform="translate(83,69)"/>
<path d="M0 0 C0.66 0 1.32 0 2 0 C3.71360021 3.94902814 5.42247068 7.90005812 7.12695312 11.85302734 C7.70768151 13.19799169 8.28970745 14.54239653 8.87304688 15.88623047 C9.71043745 17.81593154 10.54316833 19.74758484 11.375 21.6796875 C11.87773437 22.84226074 12.38046875 24.00483398 12.8984375 25.20263672 C14 28 14 28 14 30 C14.66 30 15.32 30 16 30 C16.16218018 29.472854 16.32436035 28.94570801 16.49145508 28.40258789 C18.46991443 22.20260524 20.9696963 16.34558046 23.6875 10.4375 C24.31108398 9.06754883 24.31108398 9.06754883 24.94726562 7.66992188 C25.96082902 5.44474248 26.97845216 3.22152219 28 1 C28.66 1 29.32 1 30 1 C31.00312088 5.89173878 31.99983922 10.78472275 32.99072266 15.67895508 C33.32849564 17.3427218 33.66799612 19.00613881 34.00927734 20.66918945 C34.50035091 23.06370996 34.98513839 25.4594315 35.46875 27.85546875 C35.62186646 28.5952446 35.77498291 29.33502045 35.93273926 30.09721375 C36.67037764 33.78341791 37.1808458 37.23776147 37 41 C35.35 41 33.7 41 32 41 C31.82609741 39.97060303 31.82609741 39.97060303 31.64868164 38.92041016 C31.12324724 35.82137127 30.59293597 32.72318656 30.0625 29.625 C29.78889648 28.00464844 29.78889648 28.00464844 29.50976562 26.3515625 C29.33251953 25.3203125 29.15527344 24.2890625 28.97265625 23.2265625 C28.81031494 22.27346191 28.64797363 21.32036133 28.48071289 20.33837891 C28.1028932 17.99083032 28.1028932 17.99083032 27 16 C23.37 24.25 19.74 32.5 16 41 C15.34 41 14.68 41 14 41 C10.37 32.75 6.74 24.5 3 16 C1.1892472 24.31300151 -0.54583451 32.61716364 -2 41 C-3.65 41 -5.3 41 -7 41 C-6.39371194 32.15485677 -4.6661747 23.5512532 -2.9375 14.875 C-2.65257132 13.42716661 -2.36806298 11.97925043 -2.08398438 10.53125 C-1.39416131 7.01986662 -0.69867425 3.50963432 0 0 Z " fill="#ABDB1F" transform="translate(9,8)"/>
<path d="M0 0 C2.89869107 3.47434117 4.672699 7.33597443 6.50390625 11.43359375 C6.98983498 12.50602074 6.98983498 12.50602074 7.48558044 13.60011292 C8.5158288 15.87719267 9.53910957 18.15733121 10.5625 20.4375 C11.25413063 21.96698988 11.94618361 23.49628885 12.63867188 25.02539062 C13.30245577 26.49462346 13.96587927 27.96401918 14.62890625 29.43359375 C14.93727921 30.11707382 15.24565216 30.80055389 15.56336975 31.50474548 C17.12039141 34.97493318 18.61987165 38.45555037 20 42 C18.02 42 16.04 42 14 42 C12.68 39.03 11.36 36.06 10 33 C3.73 33 -2.54 33 -9 33 C-10.32 35.97 -11.64 38.94 -13 42 C-14.65 42 -16.3 42 -18 42 C-17.340617 37.04816297 -15.27837606 32.8939504 -13.18359375 28.41796875 C-12.61971703 27.19670036 -12.61971703 27.19670036 -12.04444885 25.95075989 C-10.84715686 23.36064541 -9.64244659 20.774061 -8.4375 18.1875 C-7.62255453 16.42796232 -6.80809581 14.66819912 -5.99414062 12.90820312 C-4.00172443 8.60283507 -2.00264979 4.30061682 0 0 Z " fill="#AADB1B" transform="translate(66,7)"/>
<path d="M0 0 C3.02016748 2.57868494 4.34894257 5.48822138 5.99609375 9.06640625 C6.2709108 9.65993393 6.54572784 10.25346161 6.82887268 10.86497498 C7.40929431 12.12184678 7.9865327 13.38019285 8.56079102 14.63989258 C9.42482774 16.53470996 10.2983599 18.42489469 11.17382812 20.31445312 C14.31861633 27.1328171 17.31084743 33.98823084 20 41 C18.02 41 16.04 41 14 41 C12.68 38.03 11.36 35.06 10 32 C3.73 32 -2.54 32 -9 32 C-10.32 34.97 -11.64 37.94 -13 41 C-14.65 41 -16.3 41 -18 41 C-17.33475891 36.21916525 -15.44800641 32.22511279 -13.4375 27.890625 C-13.0861499 27.12320984 -12.7347998 26.35579468 -12.37280273 25.56512451 C-11.6322265 23.95030486 -10.88909072 22.33665689 -10.14355469 20.72412109 C-8.99867211 18.24712707 -7.86198419 15.76649917 -6.7265625 13.28515625 C-6.00568341 11.7159275 -5.2843453 10.14690952 -4.5625 8.578125 C-4.22081787 7.83338928 -3.87913574 7.08865356 -3.52709961 6.3213501 C-1.11649382 1.11649382 -1.11649382 1.11649382 0 0 Z " fill="#AADB1B" transform="translate(190,8)"/>
<path d="M0 0 C4.16888849 3.57333299 8.10051433 6.97325771 11.953125 10.8203125 C12.819375 11.68527344 13.685625 12.55023438 14.578125 13.44140625 C15.90070313 14.76978516 15.90070313 14.76978516 17.25 16.125 C18.1471875 17.01832031 19.044375 17.91164063 19.96875 18.83203125 C20.82984375 19.69441406 21.6909375 20.55679687 22.578125 21.4453125 C23.35575195 22.22406738 24.13337891 23.00282227 24.93457031 23.80517578 C27 26 27 26 30 30 C30.33 20.43 30.66 10.86 31 1 C32.65 1 34.3 1 36 1 C36 14.86 36 28.72 36 43 C28.19241443 36.3077838 28.19241443 36.3077838 25.58984375 33.15625 C21.80051632 28.70694186 17.7173493 24.60582581 13.5625 20.5 C9.8190625 16.7875 9.8190625 16.7875 6 13 C5.67 22.24 5.34 31.48 5 41 C3.35 41 1.7 41 0 41 C0 27.47 0 13.94 0 0 Z " fill="#AADB1F" transform="translate(132,8)"/>
<path d="M0 0 C1.65 0 3.3 0 5 0 C5 5.28 5 10.56 5 16 C11.6 16 18.2 16 25 16 C25 10.72 25 5.44 25 0 C26.65 0 28.3 0 30 0 C30 13.2 30 26.4 30 40 C28.35 40 26.7 40 25 40 C25 33.73 25 27.46 25 21 C18.4 21 11.8 21 5 21 C5 27.27 5 33.54 5 40 C3.35 40 1.7 40 0 40 C0 26.8 0 13.6 0 0 Z " fill="#A8DA17" transform="translate(328,9)"/>
<path d="M0 0 C6.65492958 5.54577465 6.65492958 5.54577465 9.125 8.5625 C14.0720405 14.38057697 19.57248771 19.633471 25 25 C25.33 17.08 25.66 9.16 26 1 C27.65 1 29.3 1 31 1 C31 12.88 31 24.76 31 37 C30.34 37 29.68 37 29 37 C27.57006836 35.54443359 27.57006836 35.54443359 25.90234375 33.5234375 C21.36193533 28.18136506 16.37196161 23.35277682 11.34570312 18.47265625 C10.65541016 17.79332031 9.96511719 17.11398438 9.25390625 16.4140625 C8.62814697 15.8051416 8.0023877 15.1962207 7.35766602 14.56884766 C6 13 6 13 6 11 C5.34 11 4.68 11 4 11 C4 19.25 4 27.5 4 36 C2.68 36 1.36 36 0 36 C0 24.12 0 12.24 0 0 Z " fill="#ADDC23" transform="translate(132,64)"/>
<path d="M0 0 C4.31633181 3.18586395 7.91120739 6.79612218 9.625 11.9375 C10.41612286 18.30038814 9.87789968 22.96857858 6.125 28.24609375 C2.7610283 32.03932225 -1.28463402 34.56568082 -6.35546875 35.17578125 C-12.24203733 35.37373665 -16.51318619 34.33305251 -21.375 30.9375 C-25.54807623 26.65460597 -27.43593152 22.55849797 -27.8125 16.625 C-27.65037845 10.53530934 -24.90478116 6.70949425 -20.90625 2.328125 C-15.01670399 -2.8107926 -7.10206097 -2.23583401 0 0 Z M-21.375 8.9375 C-23.34949669 12.88649337 -22.81270498 17.63340104 -22.375 21.9375 C-20.23760117 26.3706235 -17.9575842 29.06280646 -13.375 30.9375 C-7.7490378 31.47330592 -4.21357217 31.12655893 0.625 27.9375 C4.49907316 23.64460812 5.99163128 20.97152575 5.90625 15.1015625 C5.30410317 10.46837718 2.9518417 7.18392705 -0.4375 4 C-8.76563314 0.98769652 -15.68120463 2.02616349 -21.375 8.9375 Z " fill="#ACDB21" transform="translate(286.375,66.0625)"/>
<path d="M0 0 C2.82234198 3.39909304 4.57536973 7.13076376 6.35546875 11.13671875 C6.66196854 11.81676468 6.96846832 12.49681061 7.28425598 13.19746399 C7.92776019 14.6277461 8.56888661 16.05910013 9.20776367 17.49145508 C10.18981975 19.69269964 11.17923008 21.89052103 12.16992188 24.08789062 C12.79470034 25.47897384 13.41906408 26.87024341 14.04296875 28.26171875 C14.3397905 28.92209641 14.63661224 29.58247406 14.94242859 30.26286316 C17 34.88320043 17 34.88320043 17 36 C15.35 36 13.7 36 12 36 C9 30.375 9 30.375 9 27 C3.39 27 -2.22 27 -8 27 C-8.66 28.98 -9.32 30.96 -10 33 C-10.66 33.99 -11.32 34.98 -12 36 C-13.32 36 -14.64 36 -16 36 C-14.59598175 31.5592173 -12.90112035 27.35433818 -10.99609375 23.10546875 C-10.71274673 22.47264481 -10.42939972 21.83982086 -10.13746643 21.18782043 C-9.54298753 19.86197464 -8.94709668 18.5367611 -8.34985352 17.2121582 C-7.43307748 15.17768573 -6.52191176 13.14076604 -5.61132812 11.10351562 C-5.03158005 9.81235175 -4.45151338 8.52133087 -3.87109375 7.23046875 C-3.34443115 6.05895264 -2.81776855 4.88743652 -2.27514648 3.68041992 C-1 1 -1 1 0 0 Z " fill="#AADB1C" transform="translate(213,64)"/>
<path d="M0 0 C9.03244838 0 9.03244838 0 12.375 2.3125 C13.02210938 2.74175781 13.66921875 3.17101562 14.3359375 3.61328125 C16.7561249 5.63010408 17.90565857 7.36741592 18.37109375 10.48828125 C18.57249874 19.05391695 18.57249874 19.05391695 15.75 22.5625 C10.13457416 27.53980926 8.11108587 27 0 27 C0 18.09 0 9.18 0 0 Z " fill="#FDFEFB" transform="translate(173,69)"/>
<path d="M0 0 C4.64971027 2.62469626 8.04883596 5.9320355 9.58984375 11.1171875 C10.37602802 17.32533227 10.33148896 22.8788842 6.58984375 28.1171875 C1.75407913 32.74270149 -2.12052173 35.1426043 -8.78515625 35.4921875 C-14.30335308 35.34552446 -18.02476401 33.48404042 -21.91796875 29.62109375 C-26.30467696 24.59517949 -26.82680499 20.42818193 -26.75 13.9765625 C-26.02764036 7.89877798 -22.96872438 4.38948801 -18.34765625 0.6171875 C-12.72798835 -2.11902635 -5.81255153 -2.12907074 0 0 Z M-21.78515625 9.9296875 C-23.15853936 14.73652838 -22.90576932 18.7607728 -21.22265625 23.3671875 C-18.87116416 26.9349686 -16.22573468 29.20939829 -12.41015625 31.1171875 C-7.16707056 31.52050178 -3.84888072 30.97769883 0.58984375 28.1171875 C4.78913913 23.46391425 5.95018069 20.58650982 5.87109375 14.4375 C5.31895814 9.88238122 2.80691124 7.22361249 -0.47265625 4.2421875 C-9.34784274 0.84317991 -16.12268216 2.46551711 -21.78515625 9.9296875 Z " fill="#ABDB1F" transform="translate(86.41015625,65.8828125)"/>
<path d="M0 0 C7.87298473 6.74827263 7.87298473 6.74827263 11.078125 10.19921875 C11.76390625 10.93333984 12.4496875 11.66746094 13.15625 12.42382812 C14.19265625 13.5443457 14.19265625 13.5443457 15.25 14.6875 C16.65070279 16.19172188 18.05173152 17.69564033 19.453125 19.19921875 C20.06317383 19.85752686 20.67322266 20.51583496 21.30175781 21.1940918 C22.83648752 22.82612107 24.4158733 24.4158733 26 26 C26.33 17.75 26.66 9.5 27 1 C28.32 1 29.64 1 31 1 C31 12.88 31 24.76 31 37 C22.85922863 30.02219597 15.33020325 22.75273842 8.375 14.59375 C7.30150314 13.34946955 6.16203041 12.16203041 5 11 C4.67 19.25 4.34 27.5 4 36 C2.68 36 1.36 36 0 36 C0 24.12 0 12.24 0 0 Z " fill="#AADB1C" transform="translate(300,64)"/>
<path d="M0 0 C14.08038585 0 14.08038585 0 21 4 C25.30007901 8.40495899 26.16767167 11.25450708 26.25 17.3125 C26.27578125 18.44300781 26.3015625 19.57351562 26.328125 20.73828125 C25.85003378 25.49073566 24.087024 27.99879369 20.625 31.1875 C13.38808823 36.18441527 9.69144931 35 0 35 C0 23.45 0 11.9 0 0 Z M4 4 C4 12.91 4 21.82 4 31 C12.81769963 31.35163477 12.81769963 31.35163477 19 27 C22.60697618 23.03146535 22.5064334 19.81332536 22.34765625 14.62890625 C21.86598478 10.98660404 20.80032489 9.35816833 18 7 C12.784119 3.56226025 10.85869645 4 4 4 Z " fill="#AADB1A" transform="translate(169,65)"/>
<path d="M0 0 C1.65 0 3.3 0 5 0 C5.0093457 0.79696289 5.01869141 1.59392578 5.02832031 2.41503906 C5.08201498 6.02732175 5.16566608 9.63830821 5.25 13.25 C5.26417969 14.50425781 5.27835937 15.75851563 5.29296875 17.05078125 C5.32519531 18.25605469 5.35742188 19.46132812 5.390625 20.703125 C5.4220459 22.36843262 5.4220459 22.36843262 5.45410156 24.06738281 C6.11661527 27.62646809 7.1468112 28.83126539 10 31 C13.45238782 31.50347322 15.26782014 31.41556154 18.3125 29.6875 C21.35750756 26.64249244 21.17098295 23.33090841 21.31640625 19.23828125 C21.35830078 18.12001953 21.40019531 17.00175781 21.44335938 15.84960938 C21.48267578 14.68236328 21.52199219 13.51511719 21.5625 12.3125 C21.60568359 11.13365234 21.64886719 9.95480469 21.69335938 8.74023438 C21.79951176 5.82694117 21.90156242 2.91356243 22 0 C23.32 0 24.64 0 26 0 C26.11651725 4.37477474 26.18736 8.74914827 26.25 13.125 C26.28351563 14.3625 26.31703125 15.6 26.3515625 16.875 C26.47401208 28.26281074 26.47401208 28.26281074 22 33 C18.53987841 35.88343466 15.51125138 36.54838686 10.9921875 36.34375 C7.52500894 35.74549174 5.57811911 34.33829408 3 32 C-0.75048441 25.56048904 -0.34934297 19.36203293 -0.1875 12.0625 C-0.17396484 10.90169922 -0.16042969 9.74089844 -0.14648438 8.54492188 C-0.1113141 5.69612948 -0.06209287 2.84831156 0 0 Z " fill="#AFDD2D" transform="translate(100,65)"/>
<path d="M0 0 C5.61 0 11.22 0 17 0 C17 7.59 17 15.18 17 23 C12.71 23 8.42 23 4 23 C4 16.4 4 9.8 4 3 C2.68 3 1.36 3 0 3 C0 2.01 0 1.02 0 0 Z " fill="#F7F7F7" transform="translate(97,117)"/>
<path d="M0 0 C3.81684226 1.55500981 6.19195732 4.03595495 9 7 C7.59155282 10.21524305 5.89655214 12.32183868 3.375 14.75 C2.74335938 15.36359375 2.11171875 15.9771875 1.4609375 16.609375 C0.97882813 17.06828125 0.49671875 17.5271875 0 18 C0 13.61031544 2.12805101 12.23094261 5 9 C4.10796875 9.51691406 3.2159375 10.03382812 2.296875 10.56640625 C1.11494558 11.2324141 -0.06736637 11.89774341 -1.25 12.5625 C-1.83652344 12.90474609 -2.42304688 13.24699219 -3.02734375 13.59960938 C-7.3793873 16.02012798 -7.3793873 16.02012798 -10.16796875 15.9296875 C-12.47700181 14.75793938 -14.16367238 13.32229978 -16.0625 11.5625 C-18.33756394 9.47083853 -20.41507709 7.72328194 -23 6 C-15.46853452 1.53690935 -8.59141782 1.56004119 0 2 C0 1.34 0 0.68 0 0 Z " fill="#EAECE6" transform="translate(256,7)"/>
<path d="M0 0 C1.66015625 1.02734375 1.66015625 1.02734375 3 3 C3.3258438 5.74472033 3.46448502 8.19729377 3.4375 10.9375 C3.45748047 11.65357422 3.47746094 12.36964844 3.49804688 13.10742188 C3.49477658 16.63607413 3.28376124 18.62422413 1.1328125 21.47265625 C-1 23 -1 23 -3.5625 23.5 C-6 23 -6 23 -7.62890625 21.47265625 C-9.54472905 18.01762538 -9.43729706 14.7826131 -9.375 10.9375 C-9.38660156 10.21755859 -9.39820313 9.49761719 -9.41015625 8.75585938 C-9.39340725 5.74941372 -9.37895488 3.55956787 -7.6640625 1.02734375 C-5.03788239 -0.59398341 -3.00451013 -0.37556377 0 0 Z " fill="#606266" transform="translate(177,117)"/>
<path d="M0 0 C8 0 8 0 10.5 1.8125 C13.04385266 7.2181869 12.93071134 13.11884143 11.1015625 18.78125 C10 21 10 21 8 22 C5.36 22 2.72 22 0 22 C0 14.74 0 7.48 0 0 Z " fill="#696B6E" transform="translate(42,117)"/>
<path d="M0 0 C3.76077992 1.68700193 6.22064316 3.98193649 9.12109375 6.85546875 C10.9658385 8.2230715 10.9658385 8.2230715 13.328125 7.8671875 C16.50588383 6.83580963 19.34433427 5.47050868 22.3125 3.9375 C23.38113281 3.38964844 24.44976562 2.84179688 25.55078125 2.27734375 C26.35902344 1.85582031 27.16726563 1.43429687 28 1 C26.42505557 4.39779678 24.40100065 6.86081947 21.9140625 9.66015625 C18.90822238 13.33464244 16.25428849 17.26422482 13.60351562 21.20068359 C11.4066767 24.37707668 9.73133562 26.71896542 6 28 C5.34 27.34 4.68 26.68 4 26 C4.33 25.175 4.66 24.35 5 23.5 C7.25348243 15.61281151 6.01317825 11.1353651 2.19140625 4.1015625 C1.79824219 3.40804688 1.40507812 2.71453125 1 2 C0.67 1.34 0.34 0.68 0 0 Z " fill="#AADB1E" transform="translate(234,14)"/>
<path d="M0 0 C5.61 0 11.22 0 17 0 C17 1.32 17 2.64 17 4 C12.71 4 8.42 4 4 4 C4 7.3 4 10.6 4 14 C7.96 14 11.92 14 16 14 C16 15.32 16 16.64 16 18 C12.04 18 8.08 18 4 18 C4 23.61 4 29.22 4 35 C2.68 35 1.36 35 0 35 C0 23.45 0 11.9 0 0 Z " fill="#A8DA14" transform="translate(40,65)"/>
<path d="M0 0 C7.92 0 15.84 0 24 0 C24 1.32 24 2.64 24 4 C20.7 4 17.4 4 14 4 C14 15.88 14 27.76 14 40 C12.68 40 11.36 40 10 40 C10 28.12 10 16.24 10 4 C6.7 4 3.4 4 0 4 C0 2.68 0 1.36 0 0 Z " fill="#A8DA12" transform="translate(300,9)"/>
<path d="M0 0 C1.32 0.33 2.64 0.66 4 1 C5.78939376 4.54012777 6.78028962 8.21018561 8 12 C8.33 8.04 8.66 4.08 9 0 C9.99 0 10.98 0 12 0 C12 7.59 12 15.18 12 23 C8.04 23 4.08 23 0 23 C0 15.41 0 7.82 0 0 Z " fill="#56585C" transform="translate(118,117)"/>
<path d="M0 0 C2.64 0 5.28 0 8 0 C10 2 10 2 10.1953125 3.9453125 C10.13020833 5.96354167 10.06510417 7.98177083 10 10 C9.01 10.33 8.02 10.66 7 11 C8.65 14.96 10.3 18.92 12 23 C8.04 23 4.08 23 0 23 C0 15.41 0 7.82 0 0 Z " fill="#585A5E" transform="translate(184,117)"/>
<path d="M0 0 C2.64 0 5.28 0 8 0 C10 2 10 2 10.25 5.5 C10 9 10 9 8 11 C8.46871403 15.1012478 9.83756544 19.04772249 11 23 C7.37 23 3.74 23 0 23 C0 15.41 0 7.82 0 0 Z " fill="#55575B" transform="translate(307,117)"/>
<path d="M0 0 C6.93 0 13.86 0 21 0 C21 1.32 21 2.64 21 4 C18.36 4 15.72 4 13 4 C13 14.23 13 24.46 13 35 C11.68 35 10.36 35 9 35 C9 24.77 9 14.54 9 4 C6.03 4 3.06 4 0 4 C0 2.68 0 1.36 0 0 Z " fill="#AADB1F" transform="translate(226,65)"/>
<path d="M0 0 C0.99 0 1.98 0 3 0 C7.40774487 15.74487472 7.40774487 15.74487472 8 23 C3.71 23 -0.58 23 -5 23 C-1.5 1.5 -1.5 1.5 0 0 Z " fill="#606266" transform="translate(89,117)"/>
<path d="M0 0 C8.16 0.48 8.16 0.48 11.625 2.625 C13 5 13 5 13.0625 8.5625 C12 12 12 12 9.875 13.9375 C7 15 7 15 0 15 C0 10.05 0 5.1 0 0 Z " fill="#FBFDF6" transform="translate(280,13)"/>
<path d="M0 0 C8.625 0.75 8.625 0.75 12 3 C12.67175573 10.05343511 12.67175573 10.05343511 10.625 12.9375 C6.51987441 15.62162057 6.05732807 15 0 15 C0 10.05 0 5.1 0 0 Z " fill="#FCFDF9" transform="translate(95,13)"/>
<path d="M0 0 C1.32 0 2.64 0 4 0 C4 13.2 4 26.4 4 40 C2.68 40 1.36 40 0 40 C0 26.8 0 13.6 0 0 Z " fill="#A7DA10" transform="translate(120,9)"/>
<path d="M0 0 C0.66 0.33 1.32 0.66 2 1 C2.29966389 4.28871634 2.41546886 7.53453698 2.47851562 10.83398438 C2.65837893 15.58500772 3.52633353 18.81125811 6 23 C2.04 23 -1.92 23 -6 23 C-6 19.37 -6 15.74 -6 12 C-4.02 12 -2.04 12 0 12 C0 11.01 0 10.02 0 9 C-1.98 9 -3.96 9 -6 9 C-6 7.02 -6 5.04 -6 3 C-4.02 3 -2.04 3 0 3 C0 2.01 0 1.02 0 0 Z " fill="#FDFDFD" transform="translate(260,117)"/>
<path d="M0 0 C3.5 0.5 3.5 0.5 5.4375 1.875 C6.5 3.5 6.5 3.5 6.5 5.5 C5.9225 5.335 5.345 5.17 4.75 5 C2.23335631 4.35537969 2.23335631 4.35537969 -1.5 4.5 C-2.77005965 5.54774989 -2.77005965 5.54774989 -2.6328125 7.8984375 C-2.63023437 8.88070312 -2.62765625 9.86296875 -2.625 10.875 C-2.62757813 11.85210937 -2.63015625 12.82921875 -2.6328125 13.8359375 C-2.61434035 16.60464416 -2.61434035 16.60464416 -1.5 19.5 C-0.18 19.5 1.14 19.5 2.5 19.5 C2.83 17.52 3.16 15.54 3.5 13.5 C2.51 13.5 1.52 13.5 0.5 13.5 C0.5 12.51 0.5 11.52 0.5 10.5 C2.48 10.5 4.46 10.5 6.5 10.5 C7.11989796 18.55867347 7.11989796 18.55867347 4.8125 22.0625 C2.04815528 23.78087645 0.69625513 24.07368682 -2.5 23.5 C-5.0048111 21.62139167 -5.48700625 20.53898126 -6.5 17.5 C-6.6447963 15.54524991 -6.72067502 13.5848862 -6.75 11.625 C-6.78867188 10.08199219 -6.78867188 10.08199219 -6.828125 8.5078125 C-6.27878789 3.47222235 -5.17702856 0.73957551 0 0 Z " fill="#5F6165" transform="translate(139.5,116.5)"/>
<path d="M0 0 C0.99 0 1.98 0 3 0 C3.33 6.27 3.66 12.54 4 19 C5.32 19 6.64 19 8 19 C8.33 12.73 8.66 6.46 9 0 C9.99 0 10.98 0 12 0 C12.08706892 3.27066566 12.14041241 6.54103365 12.1875 9.8125 C12.22520508 11.2056543 12.22520508 11.2056543 12.26367188 12.62695312 C12.27817383 13.9659668 12.27817383 13.9659668 12.29296875 15.33203125 C12.31653442 16.56530151 12.31653442 16.56530151 12.34057617 17.82348633 C11.9172273 20.52897394 11.18031659 21.38604911 9 23 C6 23.4375 6 23.4375 3 23 C0.84637403 21.1777011 0.07747972 19.69306649 -0.23583984 16.89038086 C-0.29569011 14.33702517 -0.26103387 11.80294511 -0.1875 9.25 C-0.17396484 8.36183594 -0.16042969 7.47367187 -0.14648438 6.55859375 C-0.11121309 4.37177422 -0.06192752 2.18620034 0 0 Z " fill="#585A5E" transform="translate(57,117)"/>
<path d="M0 0 C1.32 0 2.64 0 4 0 C4.11651725 4.37477474 4.18736 8.74914827 4.25 13.125 C4.28351563 14.3625 4.31703125 15.6 4.3515625 16.875 C4.47471169 28.32787456 4.47471169 28.32787456 0 33 C-2.25 34.375 -2.25 34.375 -4 35 C-4.66 34.34 -5.32 33.68 -6 33 C-5.360625 32.236875 -4.72125 31.47375 -4.0625 30.6875 C-1.10869606 26.83860396 -0.85139266 23.96062195 -0.68359375 19.23828125 C-0.64169922 18.12001953 -0.59980469 17.00175781 -0.55664062 15.84960938 C-0.51732422 14.68236328 -0.47800781 13.51511719 -0.4375 12.3125 C-0.37272461 10.54422852 -0.37272461 10.54422852 -0.30664062 8.74023438 C-0.20048824 5.82694117 -0.09843758 2.91356243 0 0 Z " fill="#A8DA15" transform="translate(122,65)"/>
<path d="M0 0 C0.99 0 1.98 0 3 0 C3.33 6.27 3.66 12.54 4 19 C5.32 19 6.64 19 8 19 C8.33 12.73 8.66 6.46 9 0 C9.99 0 10.98 0 12 0 C12.08733513 3.08315385 12.14050127 6.16598827 12.1875 9.25 C12.21263672 10.12269531 12.23777344 10.99539062 12.26367188 11.89453125 C12.33749706 18.34193052 12.33749706 18.34193052 10.67578125 21.58203125 C9 23 9 23 6 23.4375 C2.66921146 22.95176 1.97270358 22.61543364 0 20 C-0.34057617 17.82348633 -0.34057617 17.82348633 -0.29296875 15.33203125 C-0.28330078 14.43935547 -0.27363281 13.54667969 -0.26367188 12.62695312 C-0.23853516 11.69818359 -0.21339844 10.76941406 -0.1875 9.8125 C-0.17396484 8.87212891 -0.16042969 7.93175781 -0.14648438 6.96289062 C-0.11113096 4.64134962 -0.06178674 2.32096347 0 0 Z " fill="#56585C" transform="translate(263,117)"/>
<path d="M0 0 C0.99 0 1.98 0 3 0 C3.33 6.27 3.66 12.54 4 19 C5.32 19 6.64 19 8 19 C8.33 12.73 8.66 6.46 9 0 C9.99 0 10.98 0 12 0 C12.08733513 3.08315385 12.14050127 6.16598827 12.1875 9.25 C12.21263672 10.12269531 12.23777344 10.99539062 12.26367188 11.89453125 C12.33749706 18.34193052 12.33749706 18.34193052 10.67578125 21.58203125 C9 23 9 23 6 23.4375 C2.66921146 22.95176 1.97270358 22.61543364 0 20 C-0.34057617 17.82348633 -0.34057617 17.82348633 -0.29296875 15.33203125 C-0.28330078 14.43935547 -0.27363281 13.54667969 -0.26367188 12.62695312 C-0.23853516 11.69818359 -0.21339844 10.76941406 -0.1875 9.8125 C-0.17396484 8.87212891 -0.16042969 7.93175781 -0.14648438 6.96289062 C-0.11113096 4.64134962 -0.06178674 2.32096347 0 0 Z " fill="#585A5E" transform="translate(291,117)"/>
<path d="M0 0 C1.32 0 2.64 0 4 0 C4 11.55 4 23.1 4 35 C2.68 35 1.36 35 0 35 C0 23.45 0 11.9 0 0 Z " fill="#A8DA16" transform="translate(251,65)"/>
<path d="M0 0 C2.44814179 3.0296652 4.09452853 6.07549599 5.6875 9.625 C6.12449219 10.58664063 6.56148437 11.54828125 7.01171875 12.5390625 C8 15 8 15 8 17 C3.05 17 -1.9 17 -7 17 C-5.60863728 12.82591183 -4.20818227 9.08081438 -2.375 5.125 C-1.92898437 4.15820312 -1.48296875 3.19140625 -1.0234375 2.1953125 C-0.68570313 1.47085937 -0.34796875 0.74640625 0 0 Z " fill="#F5FAE9" transform="translate(66,18)"/>
<path d="M0 0 C2.44814179 3.0296652 4.09452853 6.07549599 5.6875 9.625 C6.12449219 10.58664063 6.56148437 11.54828125 7.01171875 12.5390625 C8 15 8 15 8 17 C3.05 17 -1.9 17 -7 17 C-5.60863728 12.82591183 -4.20818227 9.08081438 -2.375 5.125 C-1.92898437 4.15820312 -1.48296875 3.19140625 -1.0234375 2.1953125 C-0.68570313 1.47085937 -0.34796875 0.74640625 0 0 Z " fill="#F6FBEA" transform="translate(190,18)"/>
<path d="M0 0 C0.66 0 1.32 0 2 0 C2 2.97 2 5.94 2 9 C3.98 9 5.96 9 8 9 C8 6.03 8 3.06 8 0 C8.99 0 9.98 0 11 0 C11 7.59 11 15.18 11 23 C10.01 23 9.02 23 8 23 C8 19.04 8 15.08 8 11 C6.02 11 4.04 11 2 11 C2 14.63 2 18.26 2 22 C1.34 22 0.68 22 0 22 C0 14.74 0 7.48 0 0 Z " fill="#55565B" transform="translate(217,117)"/>
<path d="M0 0 C2.97 0 5.94 0 9 0 C9 0.99 9 1.98 9 3 C7.02 3 5.04 3 3 3 C3 4.98 3 6.96 3 9 C4.98 9 6.96 9 9 9 C9 9.99 9 10.98 9 12 C7.02 12 5.04 12 3 12 C3 14.64 3 17.28 3 20 C4.98 20 6.96 20 9 20 C9 20.99 9 21.98 9 23 C6.03 23 3.06 23 0 23 C0 15.41 0 7.82 0 0 Z " fill="#5B5D61" transform="translate(232,117)"/>
<path d="M0 0 C2.97 0 5.94 0 9 0 C9 0.99 9 1.98 9 3 C7.02 3 5.04 3 3 3 C3 4.98 3 6.96 3 9 C4.98 9 6.96 9 9 9 C9 9.99 9 10.98 9 12 C7.02 12 5.04 12 3 12 C3 14.64 3 17.28 3 20 C4.98 20 6.96 20 9 20 C9 20.99 9 21.98 9 23 C6.03 23 3.06 23 0 23 C0 15.41 0 7.82 0 0 Z " fill="#5F6064" transform="translate(29,117)"/>
<path d="M0 0 C0.03738281 1.09699219 0.07476562 2.19398437 0.11328125 3.32421875 C0.17896653 4.77867857 0.24541299 6.23310416 0.3125 7.6875 C0.33505859 8.40873047 0.35761719 9.12996094 0.38085938 9.87304688 C0.60678337 14.37098822 1.24937312 17.26121225 4 21 C1.03 21 -1.94 21 -5 21 C-5 14.4 -5 7.8 -5 1 C-1 0 -1 0 0 0 Z " fill="#FDFDFD" transform="translate(290,119)"/>
<path d="M0 0 C2.97 0 5.94 0 9 0 C9 0.99 9 1.98 9 3 C7.02 3 5.04 3 3 3 C3 4.98 3 6.96 3 9 C4.65 9 6.3 9 8 9 C8 9.99 8 10.98 8 12 C6.35 12 4.7 12 3 12 C3 14.64 3 17.28 3 20 C4.98 20 6.96 20 9 20 C9 20.66 9 21.32 9 22 C6.03 22 3.06 22 0 22 C0 14.74 0 7.48 0 0 Z " fill="#56585C" transform="translate(321,117)"/>
<path d="M0 0 C0.99 0 1.98 0 3 0 C3 7.59 3 15.18 3 23 C0.03 23 -2.94 23 -6 23 C-6 18.05 -6 13.1 -6 8 C-3.02342082 10.97657918 -2.31268929 14.62321069 -1 18.56640625 C-0.25056591 21.14860398 -0.25056591 21.14860398 2 22 C1.67 20.02 1.34 18.04 1 16 C0.34 16.33 -0.32 16.66 -1 17 C-0.67 11.39 -0.34 5.78 0 0 Z " fill="#5C5D61" transform="translate(127,117)"/>
<path d="M0 0 C2.97 0 5.94 0 9 0 C9 0.99 9 1.98 9 3 C7.02 3 5.04 3 3 3 C3 4.98 3 6.96 3 9 C4.98 9 6.96 9 9 9 C9 9.99 9 10.98 9 12 C7.02 12 5.04 12 3 12 C3 15.63 3 19.26 3 23 C2.01 23 1.02 23 0 23 C0 15.41 0 7.82 0 0 Z " fill="#5A5C60" transform="translate(251,117)"/>
<path d="M0 0 C2.97 0 5.94 0 9 0 C9 0.99 9 1.98 9 3 C7.02 3 5.04 3 3 3 C3 4.98 3 6.96 3 9 C4.98 9 6.96 9 9 9 C9 9.99 9 10.98 9 12 C7.02 12 5.04 12 3 12 C3 15.63 3 19.26 3 23 C2.01 23 1.02 23 0 23 C0 15.41 0 7.82 0 0 Z " fill="#5D5F63" transform="translate(156,117)"/>
<path d="M0 0 C1.32 0.66 2.64 1.32 4 2 C4 6.95 4 11.9 4 17 C2.68 17.33 1.36 17.66 0 18 C-2 16 -2 16 -2.265625 12.8125 C-2.26046875 11.554375 -2.2553125 10.29625 -2.25 9 C-2.25515625 7.741875 -2.2603125 6.48375 -2.265625 5.1875 C-2 2 -2 2 0 0 Z " fill="#FAFAFA" transform="translate(173,119)"/>
<path d="M0 0 C3.49520579 4.28638418 5.03856196 8.85967962 7 14 C2.71 14 -1.58 14 -6 14 C-4.41384826 8.93942063 -2.996935 4.42404691 0 0 Z " fill="#F6FBE9" transform="translate(213,74)"/>
<path d="M0 0 C3.96 0 7.92 0 12 0 C12 0.99 12 1.98 12 3 C10.68 3 9.36 3 8 3 C8 9.6 8 16.2 8 23 C7.01 23 6.02 23 5 23 C5 16.4 5 9.8 5 3 C3.35 3 1.7 3 0 3 C0 2.01 0 1.02 0 0 Z " fill="#5C5E62" transform="translate(202,117)"/>
<path d="M0 0 C3.96 0 7.92 0 12 0 C12 0.99 12 1.98 12 3 C10.35 3 8.7 3 7 3 C7 9.6 7 16.2 7 23 C6.01 23 5.02 23 4 23 C4 16.4 4 9.8 4 3 C2.68 3 1.36 3 0 3 C0 2.01 0 1.02 0 0 Z " fill="#595B5F" transform="translate(97,117)"/>
<path d="M0 0 C1.093125 0.0825 2.18625 0.165 3.3125 0.25 C3.3125 1.24 3.3125 2.23 3.3125 3.25 C1.3325 3.25 -0.6475 3.25 -2.6875 3.25 C-2.6875 8.2 -2.6875 13.15 -2.6875 18.25 C-0.2125 19.24 -0.2125 19.24 2.3125 20.25 C1.9825 21.24 1.6525 22.23 1.3125 23.25 C-1.20954632 22.90918293 -3.18570861 22.57896537 -5.33203125 21.171875 C-7.39638071 18.24490112 -7.12199035 15.25963548 -7.0625 11.8125 C-7.07023437 10.49378906 -7.07796875 9.17507812 -7.0859375 7.81640625 C-6.48452235 2.43315106 -5.54842253 0.37616424 0 0 Z " fill="#616367" transform="translate(79.6875,116.75)"/>
<path d="M0 0 C5 1 5 1 6 2 C6.12524459 3.78837622 6.17573676 5.58228214 6.1875 7.375 C6.20167969 8.35210937 6.21585938 9.32921875 6.23046875 10.3359375 C6 13 6 13 4 16 C2.68 16 1.36 16 0 16 C0 10.72 0 5.44 0 0 Z " fill="#F8F8F8" transform="translate(45,120)"/>
<path d="M0 0 C-0.125 2.1875 -0.125 2.1875 -1 5 C-2.5218037 6.13325808 -4.0436726 7.26642927 -5.56640625 8.3984375 C-8.39223639 11.55535945 -8.54041541 15.91920582 -9 20 C-9.33 20 -9.66 20 -10 20 C-10 18.35 -10 16.7 -10 15 C-10.99 15.495 -10.99 15.495 -12 16 C-12.65772428 19.02934491 -12.65772428 19.02934491 -13 22 C-13.33 22 -13.66 22 -14 22 C-14.62964931 15.95536667 -14.09199941 11.82785629 -10.5703125 6.796875 C-7.88937219 3.72913235 -4.26296805 0 0 0 Z " fill="#B0DD2E" transform="translate(273,65)"/>
<path d="M0 0 C0 0.99 0 1.98 0 3 C-6.34352816 9.04848034 -11.38568847 10.33214764 -20.10546875 10.203125 C-23.33011152 9.97683428 -26.0435343 9.31398476 -29 8 C-29 7.34 -29 6.68 -29 6 C-28.01 6 -27.02 6 -26 6 C-26.33 5.01 -26.66 4.02 -27 3 C-26.01 3 -25.02 3 -24 3 C-23.67 3.99 -23.34 4.98 -23 6 C-23.33 6.66 -23.66 7.32 -24 8 C-19.38 8 -14.76 8 -10 8 C-10.33 7.34 -10.66 6.68 -11 6 C-13.31 6.33 -15.62 6.66 -18 7 C-18 6.34 -18 5.68 -18 5 C-12.555 4.01 -12.555 4.01 -7 3 C-7 2.34 -7 1.68 -7 1 C-6.01 1 -5.02 1 -4 1 C-4 1.99 -4 2.98 -4 4 C-2.68 2.68 -1.36 1.36 0 0 Z " fill="#949597" transform="translate(263,39)"/>
<path d="M0 0 C3.96 0 7.92 0 12 0 C12 0.99 12 1.98 12 3 C10.35 3 8.7 3 7 3 C7 9.27 7 15.54 7 22 C6.34 22 5.68 22 5 22 C5 15.73 5 9.46 5 3 C3.35 3 1.7 3 0 3 C0 2.01 0 1.02 0 0 Z " fill="#4B4D51" transform="translate(277,117)"/>
<path d="M0 0 C0.99 0 1.98 0 3 0 C3.33 6.27 3.66 12.54 4 19 C5.32 19.66 6.64 20.32 8 21 C5.125 21.625 5.125 21.625 2 22 C0 20 0 20 -0.22705078 17.93701172 C-0.21657715 17.10959473 -0.20610352 16.28217773 -0.1953125 15.4296875 C-0.18886719 14.53378906 -0.18242187 13.63789063 -0.17578125 12.71484375 C-0.15902344 11.77769531 -0.14226562 10.84054688 -0.125 9.875 C-0.11597656 8.93011719 -0.10695313 7.98523438 -0.09765625 7.01171875 C-0.07404522 4.67422708 -0.04111516 2.33723877 0 0 Z " fill="#515358" transform="translate(291,117)"/>
<path d="M0 0 C0.99 0 1.98 0 3 0 C3 7.59 3 15.18 3 23 C2.01 23 1.02 23 0 23 C0 15.41 0 7.82 0 0 Z " fill="#4F5156" transform="translate(111,117)"/>
<path d="M0 0 C0.99 0 1.98 0 3 0 C4.35439668 2.70879335 4.06501451 5.00933268 4 8 C3.34 8 2.68 8 2 8 C1.01 10.64 0.02 13.28 -1 16 C-1.66 16 -2.32 16 -3 16 C-2.52013969 10.43109483 -1.70084819 5.32932432 0 0 Z " fill="#5A5C60" transform="translate(89,117)"/>
<path d="M0 0 C0.66 0 1.32 0 2 0 C2 2.97 2 5.94 2 9 C3.98 9 5.96 9 8 9 C8 9.66 8 10.32 8 11 C6.02 11 4.04 11 2 11 C2 14.63 2 18.26 2 22 C1.34 22 0.68 22 0 22 C0 14.74 0 7.48 0 0 Z " fill="#4B4D51" transform="translate(217,117)"/>
<path d="M0 0 C1.65 0 3.3 0 5 0 C3.68 0.33 2.36 0.66 1 1 C1.33 1.66 1.66 2.32 2 3 C2.07194869 5.88370333 2.09291708 8.74239664 2.0625 11.625 C2.05798828 12.42679688 2.05347656 13.22859375 2.04882812 14.0546875 C2.03703168 16.03649006 2.01909605 18.01825433 2 20 C3.65 20.33 5.3 20.66 7 21 C7 21.33 7 21.66 7 22 C4.69 22 2.38 22 0 22 C0 14.74 0 7.48 0 0 Z " fill="#4B4D51" transform="translate(42,117)"/>
<path d="M0 0 C2.38125464 2.38125464 3.00186241 4.33857567 4.125 7.5 C4.47820312 8.4796875 4.83140625 9.459375 5.1953125 10.46875 C6 13 6 13 6 15 C4.02 15 2.04 15 0 15 C0 10.05 0 5.1 0 0 Z " fill="#F3F3F3" transform="translate(121,125)"/>
<path d="M0 0 C-0.62390625 0.52078125 -1.2478125 1.0415625 -1.890625 1.578125 C-4.50093574 4.57514845 -4.9753626 6.87681301 -5.75 10.75 C-5.99234375 11.92046875 -6.2346875 13.0909375 -6.484375 14.296875 C-6.65453125 15.18890625 -6.8246875 16.0809375 -7 17 C-7.33 17 -7.66 17 -8 17 C-8.08097324 14.72975032 -8.13917704 12.45867925 -8.1875 10.1875 C-8.22230469 8.92292969 -8.25710937 7.65835938 -8.29296875 6.35546875 C-8 3 -8 3 -6.65625 1.0625 C-4.3840908 -0.39511156 -2.64069725 -0.21411059 0 0 Z " fill="#525358" transform="translate(176,117)"/>
<path d="M0 0 C0 1.98 0 3.96 0 6 C-0.60328125 6.13277344 -1.2065625 6.26554688 -1.828125 6.40234375 C-2.62734375 6.57894531 -3.4265625 6.75554688 -4.25 6.9375 C-5.43335938 7.19853516 -5.43335938 7.19853516 -6.640625 7.46484375 C-8.76878703 7.947556 -10.88532842 8.46163178 -13 9 C-11.02579865 6.47740939 -10.03254358 6.0070192 -6.8125 5.3125 C-5.884375 5.209375 -4.95625 5.10625 -4 5 C-4.33 4.34 -4.66 3.68 -5 3 C-5.99 3 -6.98 3 -8 3 C-8 2.34 -8 1.68 -8 1 C-2.25 0 -2.25 0 0 0 Z " fill="#8A8B8E" transform="translate(246,0)"/>
<path d="M0 0 C0.99 0 1.98 0 3 0 C2.67 5.94 2.34 11.88 2 18 C1.34 17.67 0.68 17.34 0 17 C0 11.39 0 5.78 0 0 Z " fill="#484B4F" transform="translate(272,117)"/>
<path d="M0 0 C2.125 0.375 2.125 0.375 4 1 C4.625 2.875 4.625 2.875 5 5 C4.34 5.66 3.68 6.32 3 7 C0.875 6.625 0.875 6.625 -1 6 C-1.625 4.125 -1.625 4.125 -2 2 C-1.34 1.34 -0.68 0.68 0 0 Z " fill="#ABDB21" transform="translate(246,13)"/>
<path d="M0 0 C1.98 0 3.96 0 6 0 C6 2.97 6 5.94 6 9 C5.01 9 4.02 9 3 9 C3 7.02 3 5.04 3 3 C2.01 3 1.02 3 0 3 C0 2.01 0 1.02 0 0 Z " fill="#696B6E" transform="translate(140,127)"/>
<path d="M0 0 C3.96 0 7.92 0 12 0 C12 0.99 12 1.98 12 3 C8.04 3 4.08 3 0 3 C0 2.01 0 1.02 0 0 Z " fill="#5E6064" transform="translate(277,117)"/>
<path d="M0 0 C2.90408342 3.87211123 3.85079464 6.40317854 5 11 C3.35 11 1.7 11 0 11 C0 7.37 0 3.74 0 0 Z " fill="#F3F3F3" transform="translate(187,129)"/>
<path d="M0 0 C1.79068573 2.6860286 2.66055791 4.6626589 3.625 7.6875 C3.88539063 8.49574219 4.14578125 9.30398437 4.4140625 10.13671875 C4.60742188 10.75160156 4.80078125 11.36648437 5 12 C4.01 12 3.02 12 2 12 C-0.05257931 8.55166676 -1.0632763 6.68338409 -0.6875 2.625 C-0.460625 1.75875 -0.23375 0.8925 0 0 Z " fill="#66686B" transform="translate(313,128)"/>
<path d="M0 0 C2.22825644 2.22825644 2.69239369 3.65761628 3.625 6.625 C4.01558594 7.85089844 4.01558594 7.85089844 4.4140625 9.1015625 C4.60742188 9.72804687 4.80078125 10.35453125 5 11 C3.35 11 1.7 11 0 11 C0 7.37 0 3.74 0 0 Z " fill="#F7F7F7" transform="translate(310,129)"/>
<path d="M0 0 C1.32 0.99 2.64 1.98 4 3 C3.855625 3.66 3.71125 4.32 3.5625 5 C2.87700084 8.65599551 2.43824485 12.30622195 2 16 C1.67 16 1.34 16 1 16 C0.83125293 14.08351538 0.66508357 12.16680367 0.5 10.25 C0.4071875 9.18265625 0.314375 8.1153125 0.21875 7.015625 C0.04947717 4.6820782 0 2.33967818 0 0 Z " fill="#6B6C70" transform="translate(176,117)"/>
<path d="M0 0 C0.99 0 1.98 0 3 0 C3.33 0.99 3.66 1.98 4 3 C3.67 3.66 3.34 4.32 3 5 C6.63 5.33 10.26 5.66 14 6 C14 6.33 14 6.66 14 7 C8.26157749 7.20413361 3.39460953 7.27141454 -2 5 C-2 4.34 -2 3.68 -2 3 C-1.01 3 -0.02 3 1 3 C0.67 2.01 0.34 1.02 0 0 Z " fill="#86878A" transform="translate(236,42)"/>
<path d="M0 0 C1.65 0 3.3 0 5 0 C5.33 1.65 5.66 3.3 6 5 C3.69 5 1.38 5 -1 5 C-0.67 3.35 -0.34 1.7 0 0 Z " fill="#FCFCFC" transform="translate(88,135)"/>
<path d="M0 0 C1.32 0.33 2.64 0.66 4 1 C4 2.98 4 4.96 4 7 C2.68 7.33 1.36 7.66 0 8 C0 5.36 0 2.72 0 0 Z " fill="#F0F0F0" transform="translate(310,119)"/>
<path d="M0 0 C0.33 0 0.66 0 1 0 C1 3.96 1 7.92 1 12 C-0.32 12.33 -1.64 12.66 -3 13 C-2.69240822 11.02006459 -2.3787932 9.04106401 -2.0625 7.0625 C-1.88847656 5.96035156 -1.71445313 4.85820312 -1.53515625 3.72265625 C-1 1 -1 1 0 0 Z " fill="#4E5055" transform="translate(179,124)"/>
<path d="M0 0 C2.64 0 5.28 0 8 0 C8 0.66 8 1.32 8 2 C6.02 2 4.04 2 2 2 C2 3.98 2 5.96 2 8 C1.34 8 0.68 8 0 8 C0 5.36 0 2.72 0 0 Z " fill="#66686B" transform="translate(252,118)"/>
<path d="M0 0 C1.32 0 2.64 0 4 0 C4 1.98 4 3.96 4 6 C2.68 6.33 1.36 6.66 0 7 C0 4.69 0 2.38 0 0 Z " fill="#F6F6F6" transform="translate(187,120)"/>
<path d="M0 0 C1.9955516 3.99110319 2.19546065 5.69986566 2 10 C0.68 10 -0.64 10 -2 10 C-1.34 6.7 -0.68 3.4 0 0 Z " fill="#DFE0E0" transform="translate(90,123)"/>
<path d="M0 0 C0.33 0 0.66 0 1 0 C1 1.98 1 3.96 1 6 C-0.98 6.99 -0.98 6.99 -3 8 C-3 8.99 -3 9.98 -3 11 C-3.66 11 -4.32 11 -5 11 C-5.33 9.68 -5.66 8.36 -6 7 C-5.071875 6.6596875 -5.071875 6.6596875 -4.125 6.3125 C-1.38589791 4.62070165 -0.94975528 3.00755839 0 0 Z " fill="#4C4E53" transform="translate(316,120)"/>
<path d="M0 0 C0 3 0 3 -1.1875 4.625 C-3.41406801 6.31412056 -5.25851328 6.62952882 -8 7 C-7.67 5.02 -7.34 3.04 -7 1 C-6.01 1 -5.02 1 -4 1 C-4 1.99 -4 2.98 -4 4 C-2.68 2.68 -1.36 1.36 0 0 Z " fill="#9D9EA0" transform="translate(263,39)"/>
<path d="M0 0 C0.33 0.66 0.66 1.32 1 2 C1.66 2 2.32 2 3 2 C2.67 4.31 2.34 6.62 2 9 C1.01 9 0.02 9 -1 9 C-0.67 6.03 -0.34 3.06 0 0 Z " fill="#67696C" transform="translate(85,131)"/>
<path d="M0 0 C2.97 0 5.94 0 9 0 C7 3 7 3 5.0546875 3.51171875 C4.33539063 3.56972656 3.61609375 3.62773438 2.875 3.6875 C0.956875 3.8421875 0.956875 3.8421875 -1 4 C-0.67 2.68 -0.34 1.36 0 0 Z " fill="#A7DA0E" transform="translate(273,65)"/>
<path d="M0 0 C2.64 0 5.28 0 8 0 C6 3 6 3 4.0546875 3.51171875 C3.33539063 3.56972656 2.61609375 3.62773438 1.875 3.6875 C-0.043125 3.8421875 -0.043125 3.8421875 -2 4 C-1.34 2.68 -0.68 1.36 0 0 Z " fill="#A7DA0D" transform="translate(74,65)"/>
<path d="M0 0 C5.53846154 -0.36923077 5.53846154 -0.36923077 7.875 1.5 C8.24625 1.995 8.6175 2.49 9 3 C7.3125 3.6875 7.3125 3.6875 5 4 C2.25 2.625 2.25 2.625 0 1 C0 0.67 0 0.34 0 0 Z " fill="#B0DD31" transform="translate(173,96)"/>
<path d="M0 0 C0.33 0 0.66 0 1 0 C1 3.96 1 7.92 1 12 C0.01 12 -0.98 12 -2 12 C-1.34 8.04 -0.68 4.08 0 0 Z " fill="#686A6E" transform="translate(170,124)"/>
<path d="M0 0 C0.66 0 1.32 0 2 0 C2.125 5.75 2.125 5.75 1 8 C0.34 8 -0.32 8 -1 8 C-0.67 5.36 -0.34 2.72 0 0 Z " fill="#525458" transform="translate(87,125)"/>
<path d="M0 0 C1.32 1.65 2.64 3.3 4 5 C2.68 5.33 1.36 5.66 0 6 C-0.66 4.68 -1.32 3.36 -2 2 C-1.34 1.34 -0.68 0.68 0 0 Z " fill="#585A5E" transform="translate(136,133)"/>
</svg>
